<svg xmlns="http://www.w3.org/2000/svg" viewBox="0 0 24 24">
    <defs></defs>
    <circle cx="12" cy="12" r="9" fill="#9feaff"></circle>
    <circle cx="12" cy="12" r="11.5" fill="none" stroke="#00303e" stroke-linecap="round"
        stroke-linejoin="round"></circle>
    <path d="M18,11A6,6,0,0,0,6,11v5.5l6,3,6-3Z" fill="#dff9ff"></path>
    <path d="M12,5a6,6,0,0,0-6,6v5.5l6,3Z" fill="#ffffff"></path>
    <line x1="6" y1="13" x2="6" y2="13.667" fill="none" stroke="#00303e" stroke-linecap="round"
        stroke-linejoin="round"></line>
    <path d="M15.317,6A6,6,0,0,0,6,11" fill="none" stroke="#00303e" stroke-linecap="round"
        stroke-linejoin="round"></path>
    <path d="M18,12.167V11a5.972,5.972,0,0,0-1.01-3.333" fill="none" stroke="#00303e"
        stroke-linecap="round" stroke-linejoin="round"></path>
    <line x1="18" y1="16" x2="18" y2="14.167" fill="none" stroke="#00303e" stroke-linecap="round"
        stroke-linejoin="round"></line>
    <path d="M16,13.167V11a4,4,0,0,0-8,0v6" fill="none" stroke="#00303e" stroke-linecap="round"
        stroke-linejoin="round"></path>
    <line x1="16" y1="17" x2="16" y2="15.167" fill="none" stroke="#00303e" stroke-linecap="round"
        stroke-linejoin="round"></line>
    <line x1="10" y1="14.667" x2="10" y2="18" fill="none" stroke="#00303e" stroke-linecap="round"
        stroke-linejoin="round"></line>
    <path d="M14,18V11a2,2,0,0,0-4,0v1.667" fill="none" stroke="#00303e" stroke-linecap="round"
        stroke-linejoin="round"></path>
    <line x1="12" y1="11.333" x2="12" y2="19" fill="none" stroke="#00303e" stroke-linecap="round"
        stroke-linejoin="round"></line>
    <line x1="6" y1="15.5" x2="6" y2="16" fill="none" stroke="#00303e" stroke-linecap="round"
        stroke-linejoin="round"></line>
</svg>